<?xml version="1.0" encoding="utf-8"?>
<!-- Generator: Adobe Illustrator 22.0.1, SVG Export Plug-In . SVG Version: 6.00 Build 0)  -->
<svg version="1.1" id="Capa_1" xmlns="http://www.w3.org/2000/svg" xmlns:xlink="http://www.w3.org/1999/xlink" x="0px" y="0px"
	 viewBox="0 0 286.5 213.5" style="enable-background:new 0 0 286.5 213.5;" xml:space="preserve">
<style type="text/css">
	.st0{fill-rule:evenodd;clip-rule:evenodd;}
</style>
<g>
	<path class="st0" d="M18.1,107c0.3-0.8,0.7-1.6,1-2.4c2.4-7.3,6.7-13.2,13-17.5c3.3-2.2,6.6-4.4,10.2-6.1c3.3-1.6,5.2-4,6.9-7.1
		c3.3-6.4,7-12.6,10.8-18.7c1.1-1.9,2.7-3.6,4.3-5.2c3.8-3.8,8.5-3.1,11.1,1.6c0.4,0.7,0.7,1.4,1,1.9c3.4-3.9,6.5-7.9,10.1-11.5
		c5.7-5.7,12.5-10.1,20-13.1c4.8-2,9.6-1.7,14.6,0.4c-1.6,5.2-5.3,8.4-9,11.7c-0.2,0.2-0.7,0.2-1,0.1c-10.6-1.6-18.3,3.9-25.3,10.8
		c-0.7,0.7-1.2,1.5-1.7,2.1c2.3,0,4.6-0.2,6.9,0c4.7,0.6,7.3,4,6.9,8.7C97,72.9,86.6,82.2,76.3,82.2C60,82.2,45.5,88,32.5,97.6
		c-4.2,3.1-3.7,5.9,1.1,7.7c1.6,0.6,3.3,1.2,4.9,1.4c6.7,0.4,13.5,0.7,20.3,1c0.2-0.9,0.4-1.3,0.4-1.7C58,98.7,62.7,93.7,66,88.1
		c0.3-0.5,1.1-0.7,1.7-1c0.3,0.7,0.9,1.4,0.9,2.1c-0.2,5.3-0.6,10.6-0.9,15.9c0,0.6,0,1.2,0,1.7c7,0,13.8,0.2,20.6,0
		c29.5-0.8,59.1-1.9,88.6-2.6c25.6-0.6,51.2-0.8,76.8-0.9c2.7,0,5.7,1.1,8,2.5c3.3,2.2,2.6,5.4-1.1,6.9c-0.9,0.4-1.8,0.6-2.7,1.2
		c0.6,0,1.3-0.1,1.9,0c2.7,0.3,3.7,2,2,4c-2.8,3.2-6,5.9-9.1,8.7c-0.6,0.5-1.9,0.4-2.8,0.3c-11-0.7-20.3,3-28.5,10.8
		c2.3,0.2,4.3,0.2,6.2,0.5c5.3,0.9,7.8,4.4,6.4,9.5c-2.6,9.2-9,15.2-17.3,19.3c-0.5,0.3-1.2,0.2-1.8,0.2c-10,0.3-19.6,2.2-28.9,6
		c-18.5,7.4-37.5,12.8-57.3,15c-14.3,1.6-28.6,2.9-42.7-0.9c-5.6-1.5-11-3.9-16.1-6.8c-7.9-4.5-11.2-12.1-11.4-20.8
		c-0.2-11.2,0.1-22.3,0.2-33.5c0-1.1,0-2.1,0-3.6c-5.7,0-11.2,0.2-16.6-0.1c-5.1-0.3-10.2-0.9-15.2-1.8c-4.1-0.8-7.3-3-8.5-7.4
		C18.1,111.3,18.1,109.1,18.1,107z M251.2,113.9c-61.2,3-122.5,6.1-184.2,9.2c-0.1,8-0.6,16.1-0.3,24.2c0.4,12.6,8.1,21.7,20.5,24.3
		c5.9,1.2,11.9,2.1,17.9,2.5c25.3,1.8,49.6-3.3,73.4-11.5c1.2-0.4,2.4-1.7,3.1-2.9c4.9-7.9,9.6-15.9,14.5-23.7
		c1.1-1.8,2.8-3.4,4.5-4.6c4.1-3,8.3-1.8,10.5,2.7c0.6,1.2,1,2.4,1.6,3.9C222.7,125.1,234.8,116.1,251.2,113.9z M187,158.2
		c0.3,0.3,0.7,0.7,1,1c5.8-2.6,11.6-5.1,17.4-7.8c0.7-0.3,1.2-1.5,1.4-2.4c0.6-2.9-1-6.6-3.2-7.7c-2.1-1.1-4.5-0.7-6.8,2.3
		C193.3,148.3,190.2,153.3,187,158.2z M203,160.6c0.1,0.3,0.3,0.7,0.4,1c6.6-1.8,13.1-3.5,19.7-5.4c2-0.6,2.8-2.4,2.5-4.6
		c-0.6-4.9-4.3-6.6-9-3.9C211.1,150.9,207.2,155.9,203,160.6z M69,76c0.2,0.3,0.4,0.5,0.6,0.8c5.3-1.1,10.7-2.1,15.9-3.4
		c2.7-0.7,4.2-3.1,4-5.8c-0.1-1.7-1-3.8-2.2-4.7c-2.2-1.6-4.9-0.7-6.7,1C76.6,67.8,72.9,72,69,76z M53.8,74.8
		c0.2,0.2,0.3,0.4,0.5,0.6c5.1-2,10.2-3.9,15.2-6.1c1.1-0.5,2.1-2,2.4-3.2c0.5-2.2-1.9-6.9-3.4-7.6c-1.8-0.8-4.8,0.6-6.9,3.1
		c-0.2,0.2-0.3,0.4-0.5,0.6C58.7,66.5,56.3,70.7,53.8,74.8z"/>
	<path class="st0" d="M175.5,17.7c-0.2,4.3-0.3,8.6-0.7,12.9c-1.1,12.7-2.2,25.3-3.6,37.9c-1.2,10.3-4,20.1-9.8,28.9
		c-5.2,7.8-11.2,8-17.1,0.7c-2-2.5-2.2-5-1.8-8c1-9.6,1.6-19.2,2.3-28.8c0.5-6.2,0.7-12.4,1.3-18.6c0.2-1.8,0.8-3.7,1.7-5.3
		c2-3.6,4.2-7.1,6.3-10.6c0.3,0,0.6,0.1,1,0.1c0.1,1,0.4,2.1,0.3,3.1c-2.5,20-3.9,40.2-8.5,59.9c-0.6,2.6,0.4,2.9,2.6,2.8
		c7.9-0.5,12.1-4.1,13.2-12.6c1.1-7.8,1.6-15.6,2.1-23.4c0.6-7.8,0.8-15.7,1.3-23.5c0.1-1.3,0.6-2.6,1.2-3.7
		c2.2-3.9,4.5-7.8,6.7-11.6C174.4,17.7,175,17.7,175.5,17.7z"/>
	<path class="st0" d="M266.9,79.9c-2.1,5.6-4.1,11.3-6.4,16.8c-1.4,3.3-4.1,5.2-7.7,5.7c-3.3,0.5-6.1-0.5-8.1-3.2
		c-2.3-3.2-3.5-6.9-3.3-10.9c0.6-15.4,1.9-30.8,1.8-46.2c0-7.9,3.5-13.9,6.5-20.5c0.3-0.6,0.9-1,1.8-2.1c0.3,1.6,0.6,2.5,0.5,3.4
		c-0.7,13.8-1.5,27.5-2.2,41.3c-0.3,5.1-0.6,10.3-0.6,15.4c0,4.2,1,5.6,4,6.5c2.8,0.8,5.3-0.2,7.3-3.2c1-1.4,1.5-3.1,2.6-4.4
		c1.1-1.3,2.5-2.4,3.8-3.5C266.9,76.7,266.9,78.3,266.9,79.9z"/>
	<path class="st0" d="M204.1,102c-0.1-0.7-0.3-1.3-0.3-2c1.4-21.3,2.8-42.6,4.2-63.9c0-0.7,0-1.5,0.4-2.1c2.7-4.9,5.5-9.8,8.7-15.3
		c0.1,1.5,0.2,2.5,0.2,3.5c-1.3,17.6-2.7,35.2-4.1,52.8c-0.3,3.3-1,6.6-1.3,9.9c-0.6,5.9-3.5,10.9-5.9,16.1
		c-0.2,0.5-0.5,0.9-0.8,1.4C204.8,102.3,204.5,102.1,204.1,102z"/>
	<path class="st0" d="M240.7,187.6c-0.5-0.3-0.9-0.6-1.3-1c-3.9-3.2-7.7-6.5-11.7-9.6c-1.8-1.4-1.7-2.4-0.1-3.8
		c2.9-2.6,5.7-5.3,8.4-8c1.3-1.3,2.4-1.4,3.7-0.4c3.6,2.9,7.2,5.7,10.7,8.6c0.4,0.3,0.5,1.5,0.2,1.8c-2.9,4-5.9,7.8-8.9,11.7
		C241.5,187.3,241.1,187.4,240.7,187.6z"/>
	<path class="st0" d="M28.6,175.4c3-4.3,5.9-8.3,8.8-12.2c0.3-0.5,1.8-0.7,2.3-0.3c3.8,2.8,7.6,5.7,11.2,8.8c0.7,0.6,1.1,2.1,0.9,3
		c-1.1,4.1-3.5,7.4-6.9,10c-1.4,1-3,1.3-4.5,0.1C36.6,181.8,32.7,178.7,28.6,175.4z"/>
	<path class="st0" d="M26.3,155.3c5.1-1.8,10.2-3.5,15.6-5.4c-0.3-0.3-0.4-0.6-0.7-0.8c-4.4-2.6-5.4-5.5-3.1-10.1
		c0.9-1.8,2.1-3.6,3.5-5.1c0.8-1,2.1-1.7,3.3-2.1c2.6-0.9,5.6,0.1,6.4,2c0.6,1.4-1.3,6.4-2.9,7.1c-0.5,0.2-1.3-0.4-2-0.7
		c-0.8-0.3-1.6-0.9-2.4-1c-0.3,0-1.1,1.1-1,1.3c0.4,0.8,1,1.7,1.7,2.1c1.2,0.6,2.6,0.7,3.8,1.2c2.1,0.9,2.9,2.5,1.7,4.5
		c-1,1.6-2.2,3.6-3.8,4.4c-4.3,2-8.7,3.7-13.2,4.9c-2,0.5-4.4-0.6-6.7-1C26.4,156.2,26.4,155.7,26.3,155.3z"/>
	<path class="st0" d="M121.3,136.9c4.1,2.9,8.2,5.7,12.6,8.8c2.3-2.8,4.5-5.4,6.5-8.1c0.9-1.3,1.6-1.4,2.9-0.5c3.5,2.4,7,4.7,10.6,7
		c1.6,1,1.8,2.2,0.8,3.6c-2,3-4.2,5.9-6.3,8.8c-1.1,1.5-2.2,1.1-3.5,0.2c-3.5-2.5-7.1-4.8-10.8-7.3c-2.2,2.8-4.3,5.4-6.3,8
		c-1.1,1.5-2.1,1.6-3.6,0.5c-3.5-2.6-7.2-5.1-10.8-7.7c-0.9-0.7-1.8-1.3-0.7-2.6C115.7,144,118.4,140.5,121.3,136.9z"/>
</g>
</svg>
